<svg width="151" height="30" viewBox="0 0 151 30" fill="none" xmlns="http://www.w3.org/2000/svg">
<rect x="0.5" y="0.5" width="149.266" height="29" fill="white"/>
<rect x="0.5" y="0.5" width="149.266" height="29" stroke="black"/>
<path d="M12.78 20.108C12.116 20.108 11.516 20.024 10.98 19.856C10.444 19.68 9.98 19.428 9.588 19.1L9.936 18.308C10.344 18.62 10.772 18.852 11.22 19.004C11.668 19.156 12.188 19.232 12.78 19.232C13.5 19.232 14.032 19.1 14.376 18.836C14.728 18.564 14.904 18.208 14.904 17.768C14.904 17.416 14.776 17.136 14.52 16.928C14.272 16.72 13.852 16.556 13.26 16.436L12.012 16.184C11.26 16.024 10.696 15.764 10.32 15.404C9.952 15.036 9.768 14.548 9.768 13.94C9.768 13.436 9.896 12.996 10.152 12.62C10.416 12.244 10.78 11.952 11.244 11.744C11.708 11.536 12.244 11.432 12.852 11.432C13.42 11.432 13.948 11.524 14.436 11.708C14.924 11.884 15.336 12.14 15.672 12.476L15.324 13.244C14.964 12.916 14.584 12.68 14.184 12.536C13.784 12.384 13.336 12.308 12.84 12.308C12.208 12.308 11.704 12.456 11.328 12.752C10.952 13.04 10.764 13.424 10.764 13.904C10.764 14.288 10.88 14.592 11.112 14.816C11.352 15.04 11.74 15.204 12.276 15.308L13.524 15.572C14.332 15.74 14.928 15.996 15.312 16.34C15.704 16.676 15.9 17.136 15.9 17.72C15.9 18.192 15.772 18.608 15.516 18.968C15.268 19.328 14.908 19.608 14.436 19.808C13.972 20.008 13.42 20.108 12.78 20.108ZM18.0268 20V11.54H23.3668V12.368H18.9868V15.296H23.1148V16.124H18.9868V19.172H23.3668V20H18.0268ZM25.6229 20V11.54H28.9709C29.8829 11.54 30.5789 11.76 31.0589 12.2C31.5469 12.64 31.7909 13.268 31.7909 14.084C31.7909 14.892 31.5469 15.52 31.0589 15.968C30.5789 16.408 29.8829 16.628 28.9709 16.628H26.6069V20H25.6229ZM26.6069 15.8H28.8509C30.1629 15.8 30.8189 15.228 30.8189 14.084C30.8189 12.932 30.1629 12.356 28.8509 12.356H26.6069V15.8ZM35.67 20V12.392H32.598V11.54H39.738V12.392H36.666V20H35.67ZM41.4127 20V11.54H46.7527V12.368H42.3727V15.296H46.5008V16.124H42.3727V19.172H46.7527V20H41.4127ZM49.0328 20V11.54H49.8608L53.1128 17.648L56.3408 11.54H57.1688V20H56.2568V13.388L53.4368 18.692H52.7888L49.9328 13.4V20H49.0328ZM59.8745 20V11.54H63.2585C64.1305 11.54 64.8025 11.736 65.2745 12.128C65.7545 12.512 65.9945 13.052 65.9945 13.748C65.9945 14.212 65.8745 14.608 65.6345 14.936C65.3945 15.264 65.0625 15.504 64.6385 15.656C65.1265 15.784 65.5065 16.02 65.7785 16.364C66.0585 16.708 66.1985 17.144 66.1985 17.672C66.1985 18.424 65.9545 19 65.4665 19.4C64.9785 19.8 64.2905 20 63.4025 20H59.8745ZM60.8345 15.32H63.1145C64.3865 15.32 65.0225 14.824 65.0225 13.832C65.0225 12.832 64.3865 12.332 63.1145 12.332H60.8345V15.32ZM60.8345 19.208H63.3065C64.5865 19.208 65.2265 18.692 65.2265 17.66C65.2265 16.628 64.5865 16.112 63.3065 16.112H60.8345V19.208ZM68.5838 20V11.54H73.9238V12.368H69.5438V15.296H73.6718V16.124H69.5438V19.172H73.9238V20H68.5838ZM76.1799 20V11.54H79.5279C80.4399 11.54 81.1359 11.752 81.6159 12.176C82.1039 12.6 82.3479 13.204 82.3479 13.988C82.3479 14.612 82.1759 15.124 81.8319 15.524C81.4959 15.924 81.0159 16.184 80.3919 16.304C80.7599 16.432 81.0759 16.744 81.3399 17.24L82.8279 20H81.7479L80.2839 17.288C80.0999 16.952 79.8879 16.724 79.6479 16.604C79.4079 16.484 79.0919 16.424 78.6999 16.424H77.1639V20H76.1799ZM77.1639 15.644H79.3839C80.7119 15.644 81.3759 15.092 81.3759 13.988C81.3759 12.9 80.7119 12.356 79.3839 12.356H77.1639V15.644ZM88.5253 20V19.256L91.4173 16.136C91.8253 15.688 92.1173 15.28 92.2933 14.912C92.4773 14.544 92.5693 14.168 92.5693 13.784C92.5693 12.8 91.9973 12.308 90.8533 12.308C89.9973 12.308 89.2413 12.628 88.5853 13.268L88.2133 12.5C88.5253 12.18 88.9213 11.924 89.4013 11.732C89.8893 11.532 90.4013 11.432 90.9373 11.432C91.7853 11.432 92.4333 11.632 92.8813 12.032C93.3373 12.424 93.5653 12.984 93.5653 13.712C93.5653 14.216 93.4413 14.712 93.1933 15.2C92.9453 15.68 92.5653 16.192 92.0533 16.736L89.7853 19.16H93.9133V20H88.5253ZM98.2646 20.108C97.8326 20.108 97.3966 20.016 96.9566 19.832C96.5166 19.648 96.1566 19.4 95.8766 19.088L96.2486 18.308C96.5366 18.62 96.8526 18.852 97.1966 19.004C97.5486 19.156 97.9086 19.232 98.2766 19.232C99.0606 19.232 99.6646 18.94 100.089 18.356C100.513 17.772 100.725 16.904 100.725 15.752V15.152C100.565 15.68 100.277 16.096 99.8606 16.4C99.4526 16.696 98.9686 16.844 98.4086 16.844C97.9126 16.844 97.4726 16.732 97.0886 16.508C96.7046 16.276 96.4046 15.96 96.1886 15.56C95.9726 15.16 95.8646 14.7 95.8646 14.18C95.8646 13.644 95.9766 13.172 96.2006 12.764C96.4326 12.348 96.7486 12.024 97.1486 11.792C97.5566 11.552 98.0246 11.432 98.5526 11.432C99.5526 11.432 100.321 11.796 100.857 12.524C101.401 13.244 101.673 14.256 101.673 15.56C101.673 17.016 101.373 18.14 100.773 18.932C100.173 19.716 99.3366 20.108 98.2646 20.108ZM98.6126 16.016C99.1486 16.016 99.5846 15.844 99.9206 15.5C100.257 15.148 100.425 14.696 100.425 14.144C100.425 13.584 100.257 13.132 99.9206 12.788C99.5846 12.436 99.1486 12.26 98.6126 12.26C98.0846 12.26 97.6526 12.436 97.3166 12.788C96.9806 13.132 96.8126 13.584 96.8126 14.144C96.8126 14.696 96.9806 15.148 97.3166 15.5C97.6526 15.844 98.0846 16.016 98.6126 16.016ZM104.296 21.368L103.84 21.02C104.016 20.836 104.14 20.66 104.212 20.492C104.292 20.332 104.344 20.168 104.368 20H103.792V18.776H105.016V19.64C105.016 19.968 104.964 20.272 104.86 20.552C104.756 20.832 104.568 21.104 104.296 21.368ZM111.128 20V19.256L114.02 16.136C114.428 15.688 114.72 15.28 114.896 14.912C115.08 14.544 115.172 14.168 115.172 13.784C115.172 12.8 114.6 12.308 113.456 12.308C112.6 12.308 111.844 12.628 111.188 13.268L110.816 12.5C111.128 12.18 111.524 11.924 112.004 11.732C112.492 11.532 113.004 11.432 113.54 11.432C114.388 11.432 115.036 11.632 115.484 12.032C115.94 12.424 116.168 12.984 116.168 13.712C116.168 14.216 116.044 14.712 115.796 15.2C115.548 15.68 115.168 16.192 114.656 16.736L112.388 19.16H116.516V20H111.128ZM121.444 20.108C120.476 20.108 119.74 19.736 119.236 18.992C118.732 18.248 118.48 17.172 118.48 15.764C118.48 14.348 118.732 13.272 119.236 12.536C119.74 11.8 120.476 11.432 121.444 11.432C122.42 11.432 123.156 11.8 123.652 12.536C124.156 13.264 124.408 14.336 124.408 15.752C124.408 17.168 124.152 18.248 123.64 18.992C123.136 19.736 122.404 20.108 121.444 20.108ZM121.444 19.256C122.116 19.256 122.612 18.972 122.932 18.404C123.26 17.836 123.424 16.952 123.424 15.752C123.424 14.552 123.264 13.676 122.944 13.124C122.624 12.564 122.124 12.284 121.444 12.284C120.772 12.284 120.272 12.564 119.944 13.124C119.624 13.684 119.464 14.56 119.464 15.752C119.464 16.952 119.624 17.836 119.944 18.404C120.272 18.972 120.772 19.256 121.444 19.256ZM126.719 20V19.256L129.611 16.136C130.019 15.688 130.311 15.28 130.487 14.912C130.671 14.544 130.763 14.168 130.763 13.784C130.763 12.8 130.191 12.308 129.047 12.308C128.191 12.308 127.435 12.628 126.779 13.268L126.407 12.5C126.719 12.18 127.115 11.924 127.595 11.732C128.083 11.532 128.595 11.432 129.131 11.432C129.979 11.432 130.627 11.632 131.075 12.032C131.531 12.424 131.759 12.984 131.759 13.712C131.759 14.216 131.635 14.712 131.387 15.2C131.139 15.68 130.759 16.192 130.247 16.736L127.979 19.16H132.107V20H126.719ZM134.514 20V19.256L137.406 16.136C137.814 15.688 138.106 15.28 138.282 14.912C138.466 14.544 138.558 14.168 138.558 13.784C138.558 12.8 137.986 12.308 136.842 12.308C135.986 12.308 135.23 12.628 134.574 13.268L134.202 12.5C134.514 12.18 134.91 11.924 135.39 11.732C135.878 11.532 136.39 11.432 136.926 11.432C137.774 11.432 138.422 11.632 138.87 12.032C139.326 12.424 139.554 12.984 139.554 13.712C139.554 14.216 139.43 14.712 139.182 15.2C138.934 15.68 138.554 16.192 138.042 16.736L135.774 19.16H139.902V20H134.514Z" fill="black"/>
</svg>
