<svg width="44" height="19" viewBox="0 0 44 19" fill="none" xmlns="http://www.w3.org/2000/svg">
<rect x="0.5" y="0.5" width="42.2031" height="18" fill="white"/>
<rect x="0.5" y="0.5" width="42.2031" height="18" stroke="black"/>
<path d="M15.164 14H13.799L9.197 6.291H9.145C9.15367 6.447 9.16233 6.62033 9.171 6.811C9.18833 7.00167 9.20133 7.20967 9.21 7.435C9.21867 7.65167 9.22733 7.877 9.236 8.111C9.24467 8.345 9.249 8.579 9.249 8.813V14H8.183V4.718H9.535L14.124 12.401H14.176C14.1673 12.297 14.1587 12.154 14.15 11.972C14.1413 11.7813 14.1327 11.5733 14.124 11.348C14.1153 11.114 14.1067 10.8757 14.098 10.633C14.0893 10.3903 14.085 10.165 14.085 9.957V4.718H15.164V14ZM22.4148 14H17.5268V4.718H22.4148V5.745H18.6838V8.644H22.1938V9.658H18.6838V12.973H22.4148V14ZM34.3934 4.718L32.0794 14H30.8964L29.2454 7.916C29.1934 7.734 29.1414 7.54767 29.0894 7.357C29.0461 7.16633 29.0028 6.98433 28.9594 6.811C28.9161 6.63767 28.8814 6.49033 28.8554 6.369C28.8294 6.239 28.8121 6.14367 28.8034 6.083C28.7948 6.14367 28.7774 6.239 28.7514 6.369C28.7254 6.49033 28.6951 6.63767 28.6604 6.811C28.6258 6.98433 28.5824 7.17067 28.5304 7.37C28.4871 7.56067 28.4394 7.75567 28.3874 7.955L26.7754 14H25.5794L23.2784 4.718H24.4874L25.8264 10.386C25.8698 10.5853 25.9131 10.7847 25.9564 10.984C25.9998 11.1747 26.0344 11.3653 26.0604 11.556C26.0951 11.738 26.1254 11.9157 26.1514 12.089C26.1861 12.2623 26.2121 12.4313 26.2294 12.596C26.2554 12.4227 26.2814 12.245 26.3074 12.063C26.3421 11.881 26.3768 11.6947 26.4114 11.504C26.4548 11.3047 26.4981 11.1053 26.5414 10.906C26.5934 10.7067 26.6454 10.5117 26.6974 10.321L28.2054 4.718H29.4014L30.9744 10.36C31.0264 10.5593 31.0741 10.763 31.1174 10.971C31.1694 11.1703 31.2128 11.3653 31.2474 11.556C31.2908 11.7467 31.3254 11.933 31.3514 12.115C31.3861 12.2883 31.4164 12.4487 31.4424 12.596C31.4684 12.3793 31.5031 12.154 31.5464 11.92C31.5898 11.6773 31.6374 11.426 31.6894 11.166C31.7501 10.906 31.8108 10.6417 31.8714 10.373L33.1974 4.718H34.3934Z" fill="black"/>
</svg>
