<svg width="44" height="19" viewBox="0 0 44 19" fill="none" xmlns="http://www.w3.org/2000/svg">
<rect x="1" y="0.5" width="42.4844" height="18" fill="white"/>
<rect x="1" y="0.5" width="42.4844" height="18" stroke="black"/>
<path d="M13.649 11.517C13.649 12.0717 13.519 12.544 13.259 12.934C13.0077 13.3153 12.648 13.61 12.18 13.818C11.7207 14.026 11.1703 14.13 10.529 14.13C10.2083 14.13 9.89633 14.1127 9.593 14.078C9.29833 14.0433 9.02533 13.9957 8.774 13.935C8.53133 13.8657 8.31467 13.7833 8.124 13.688V12.57C8.42733 12.7087 8.79567 12.8343 9.229 12.947C9.671 13.0597 10.1217 13.116 10.581 13.116C11.0057 13.116 11.3567 13.0553 11.634 12.934C11.92 12.8127 12.1323 12.6393 12.271 12.414C12.4183 12.1887 12.492 11.9243 12.492 11.621C12.492 11.3177 12.427 11.062 12.297 10.854C12.1757 10.646 11.9677 10.4553 11.673 10.282C11.3783 10.1 10.9753 9.90933 10.464 9.71C10.1 9.56267 9.77933 9.40667 9.502 9.242C9.22467 9.06867 8.99067 8.87367 8.8 8.657C8.60933 8.44033 8.46633 8.19333 8.371 7.916C8.27567 7.63867 8.228 7.318 8.228 6.954C8.228 6.46 8.345 6.03967 8.579 5.693C8.82167 5.33767 9.151 5.06467 9.567 4.874C9.99167 4.68333 10.4813 4.588 11.036 4.588C11.5127 4.588 11.9503 4.63567 12.349 4.731C12.7477 4.82633 13.116 4.952 13.454 5.108L13.09 6.109C12.778 5.97033 12.4443 5.85333 12.089 5.758C11.7423 5.66267 11.3827 5.615 11.01 5.615C10.6547 5.615 10.3557 5.67133 10.113 5.784C9.879 5.89667 9.70133 6.057 9.58 6.265C9.45867 6.46433 9.398 6.69833 9.398 6.967C9.398 7.279 9.45867 7.539 9.58 7.747C9.70133 7.955 9.90067 8.14133 10.178 8.306C10.4553 8.47067 10.8237 8.64833 11.283 8.839C11.7943 9.03833 12.2233 9.255 12.57 9.489C12.9253 9.71433 13.194 9.98733 13.376 10.308C13.558 10.6287 13.649 11.0317 13.649 11.517ZM20.8588 14L19.8448 11.127H16.3998L15.3988 14H14.2158L17.5958 4.679H18.6878L22.0548 14H20.8588ZM18.5448 7.279C18.5275 7.20967 18.4885 7.084 18.4278 6.902C18.3758 6.72 18.3195 6.53367 18.2588 6.343C18.2068 6.14367 18.1635 5.992 18.1288 5.888C18.0855 6.06133 18.0378 6.239 17.9858 6.421C17.9425 6.59433 17.8992 6.75467 17.8558 6.902C17.8125 7.04933 17.7735 7.175 17.7388 7.279L16.7768 10.087H19.5068L18.5448 7.279ZM23.2445 14V4.718H24.4015V12.96H28.1975V14H23.2445ZM34.5817 14H29.6937V4.718H34.5817V5.745H30.8507V8.644H34.3607V9.658H30.8507V12.973H34.5817V14Z" fill="black"/>
</svg>
