<svg width="52" height="21" viewBox="0 0 52 21" fill="none" xmlns="http://www.w3.org/2000/svg">
<rect x="1" y="0.796875" width="50.1875" height="19" fill="black"/>
<rect x="1" y="0.796875" width="50.1875" height="19" stroke="black"/>
<path d="M15.122 12.6229C15.122 13.2202 14.982 13.7289 14.702 14.1489C14.4313 14.5595 14.044 14.8769 13.54 15.1009C13.0453 15.3249 12.4527 15.4369 11.762 15.4369C11.4167 15.4369 11.0807 15.4182 10.754 15.3809C10.4367 15.3435 10.1427 15.2922 9.872 15.2269C9.61067 15.1522 9.37733 15.0635 9.172 14.9609V13.7569C9.49867 13.9062 9.89533 14.0415 10.362 14.1629C10.838 14.2842 11.3233 14.3449 11.818 14.3449C12.2753 14.3449 12.6533 14.2795 12.952 14.1489C13.26 14.0182 13.4887 13.8315 13.638 13.5889C13.7967 13.3462 13.876 13.0615 13.876 12.7349C13.876 12.4082 13.806 12.1329 13.666 11.9089C13.5353 11.6849 13.3113 11.4795 12.994 11.2929C12.6767 11.0969 12.2427 10.8915 11.692 10.6769C11.3 10.5182 10.9547 10.3502 10.656 10.1729C10.3573 9.98621 10.1053 9.77621 9.9 9.54287C9.69467 9.30954 9.54067 9.04354 9.438 8.74487C9.33533 8.44621 9.284 8.10087 9.284 7.70887C9.284 7.17687 9.41 6.72421 9.662 6.35087C9.92333 5.96821 10.278 5.67421 10.726 5.46887C11.1833 5.26354 11.7107 5.16087 12.308 5.16087C12.8213 5.16087 13.2927 5.21221 13.722 5.31487C14.1513 5.41754 14.548 5.55287 14.912 5.72087L14.52 6.79887C14.184 6.64954 13.8247 6.52354 13.442 6.42087C13.0687 6.31821 12.6813 6.26687 12.28 6.26687C11.8973 6.26687 11.5753 6.32754 11.314 6.44887C11.062 6.57021 10.8707 6.74287 10.74 6.96687C10.6093 7.18154 10.544 7.43354 10.544 7.72287C10.544 8.05888 10.6093 8.33887 10.74 8.56287C10.8707 8.78687 11.0853 8.98754 11.384 9.16487C11.6827 9.34221 12.0793 9.53354 12.574 9.73887C13.1247 9.95354 13.5867 10.1869 13.96 10.4389C14.3427 10.6815 14.632 10.9755 14.828 11.3209C15.024 11.6662 15.122 12.1002 15.122 12.6229ZM25.2244 10.2849C25.2244 11.0595 25.1311 11.7642 24.9444 12.3989C24.7578 13.0242 24.4824 13.5655 24.1184 14.0229C23.7544 14.4802 23.3018 14.8302 22.7604 15.0729C22.2191 15.3155 21.5938 15.4369 20.8844 15.4369C20.1471 15.4369 19.5031 15.3155 18.9524 15.0729C18.4111 14.8209 17.9584 14.4709 17.5944 14.0229C17.2398 13.5655 16.9738 13.0195 16.7964 12.3849C16.6191 11.7502 16.5304 11.0455 16.5304 10.2709C16.5304 9.24421 16.6891 8.34821 17.0064 7.58288C17.3238 6.81754 17.8044 6.22021 18.4484 5.79087C19.1018 5.36154 19.9184 5.14687 20.8984 5.14687C21.8411 5.14687 22.6344 5.36154 23.2784 5.79087C23.9224 6.21087 24.4078 6.80821 24.7344 7.58288C25.0611 8.34821 25.2244 9.24887 25.2244 10.2849ZM17.8464 10.2849C17.8464 11.1249 17.9538 11.8482 18.1684 12.4549C18.3831 13.0615 18.7144 13.5282 19.1624 13.8549C19.6198 14.1815 20.1938 14.3449 20.8844 14.3449C21.5844 14.3449 22.1584 14.1815 22.6064 13.8549C23.0544 13.5282 23.3811 13.0615 23.5864 12.4549C23.8011 11.8482 23.9084 11.1249 23.9084 10.2849C23.9084 9.02487 23.6658 8.04021 23.1804 7.33087C22.7044 6.61221 21.9438 6.25287 20.8984 6.25287C20.1984 6.25287 19.6198 6.41621 19.1624 6.74287C18.7144 7.06021 18.3831 7.52221 18.1684 8.12887C17.9538 8.72621 17.8464 9.44487 17.8464 10.2849ZM27.3013 15.2969V5.30087H28.5473V14.1769H32.6353V15.2969H27.3013ZM41.7927 10.2009C41.7927 11.3209 41.5967 12.2589 41.2047 13.0149C40.8127 13.7709 40.248 14.3402 39.5107 14.7229C38.7827 15.1055 37.9007 15.2969 36.8647 15.2969H34.2467V5.30087H37.1447C38.0967 5.30087 38.918 5.48754 39.6087 5.86087C40.3087 6.23421 40.8453 6.78487 41.2187 7.51287C41.6013 8.23154 41.7927 9.12754 41.7927 10.2009ZM40.4767 10.2429C40.4767 9.35621 40.3413 8.62821 40.0707 8.05887C39.8 7.48954 39.4033 7.06954 38.8807 6.79887C38.3673 6.51887 37.7373 6.37887 36.9907 6.37887H35.4927V14.2189H36.7387C37.9893 14.2189 38.9227 13.8875 39.5387 13.2249C40.164 12.5529 40.4767 11.5589 40.4767 10.2429Z" fill="white"/>
</svg>
